<?xml version="1.0" encoding="utf-8"?>
<!-- Generator: Adobe Illustrator 27.9.0, SVG Export Plug-In . SVG Version: 6.00 Build 0)  -->
<svg version="1.1" id="Layer_1" xmlns="http://www.w3.org/2000/svg" xmlns:xlink="http://www.w3.org/1999/xlink" x="0px" y="0px"
	 viewBox="0 0 300 300" enable-background="new 0 0 300 300" xml:space="preserve">
<ellipse fill="none" stroke="#EA8711" stroke-miterlimit="10" cx="147.66" cy="176.584" rx="109.723" ry="108.373"/>
<g>
	<path fill="#EA8711" d="M148.701,293.473c-65.535,0-118.851-53.316-118.851-118.851c0-65.535,53.316-118.851,118.851-118.851
		s118.851,53.316,118.851,118.851C267.552,240.156,214.235,293.473,148.701,293.473z M148.701,60.771
		c-62.778,0-113.851,51.073-113.851,113.851c0,62.777,51.073,113.851,113.851,113.851s113.851-51.073,113.851-113.851
		C262.552,111.844,211.479,60.771,148.701,60.771z"/>
</g>
<g>
	<path fill="#EA8711" d="M114.921,147.409c-7.85,0.633-8.61,1.076-8.61,8.926v36.845c0,7.85,0.823,8.357,8.61,8.99v2.659H88.648
		v-2.659c8.167-0.633,8.926-1.14,8.926-8.99v-18.106H65.098v18.106c0,7.787,0.76,8.357,8.61,8.99v2.659H47.941v-2.659
		c7.597-0.633,8.293-1.14,8.293-8.99v-36.845c0-7.85-0.696-8.293-8.547-8.926v-2.786h25.513v2.786
		c-7.344,0.633-8.103,1.076-8.103,8.926v14.561h32.477v-14.561c0-7.787-0.76-8.293-8.293-8.926v-2.786h25.64V147.409z"/>
	<path fill="#EA8711" d="M154.742,143.231c16.65,0,31.717,12.155,31.717,30.704c0,20.005-15.004,32.35-32.984,32.35
		c-17.79,0-31.971-13.105-31.971-30.958c0-16.777,12.598-32.097,33.174-32.097H154.742z M152.653,146.713
		c-10.636,0-20.765,8.673-20.765,26.21c0,17.03,10.066,29.881,23.678,29.881c10.636,0,20.385-8.483,20.385-26.399
		c0-19.436-10.762-29.691-23.235-29.691H152.653z"/>
	<path fill="#EA8711" d="M244.577,159.564c-1.013-4.621-2.026-7.091-3.229-8.673c-1.583-2.152-3.229-2.849-10.446-2.849h-6.457
		v45.139c0,7.344,0.823,8.42,9.813,8.99v2.659h-28.045v-2.659c8.673-0.57,9.496-1.583,9.496-8.99v-45.139H210.2
		c-8.23,0-10.193,0.886-11.459,2.849c-1.203,1.583-2.026,4.305-3.229,8.673h-2.849c0.443-6.014,0.886-12.155,1.076-17.283h2.026
		c1.393,2.342,2.596,2.342,5.381,2.342h38.365c2.596,0,3.482-0.57,4.938-2.342h2.026c0,4.242,0.506,11.395,0.95,16.967
		L244.577,159.564z"/>
</g>
<path fill="none" stroke="#EA8711" stroke-width="5" stroke-miterlimit="10" d="M26.85,158.544"/>
<path fill="#EA8711" d="M291.085,131.774c-9.86,2.947-19.719,5.894-29.579,8.841c14.794-16.585,22.092-38.778,24.39-60.883
	c2.298-22.106-0.025-44.401-2.347-66.504c-8.547,16.394-18.837,32.181-32.722,44.388c-13.885,12.208-24.703,18.056-43.191,17.961
	c19.462-5.957,28.745-17.791,39.036-35.35c6.722-11.47,7.107-24.205,9.401-37.328c-5.024,1.687-6.256,3.085-11.43,4.229
	c-2.138,0.473-4.82,2.553-6.967,2.982c-1.061,0.212-8.476-0.677-1.372-1.305c-2.911,0.258-9.444,2.314-12.262,3.064
	c-6.098,1.622-8.679,2.552-14.76,4.234c-3.198,0.885-6.41,1.724-9.649,2.448c-2.24,0.501-4.494,0.933-6.744,1.384
	c-0.245,0.049-0.475,0.094-0.692,0.139c-0.532,0.11-1.065,0.221-1.595,0.338c-7.718,1.698-15.403,3.842-23.193,5.175
	c-1.802,0.309-3.692,0.274-5.443,0.82c-0.075,0.023-0.138,0.071-0.199,0.103c-3.526,1.882-7.307,2.264-10.935,3.062
	c-0.004,0.001-0.007,0.003-0.011,0.005c-3.189,1.315-6.631,1.84-9.959,2.776c-2.487,0.699-4.807,0.714-7.414,0.714
	c-2.572,0-5.121-0.375-7.508-0.063C105.694,35.65,92.023,56.673,85.46,75.691c2.5-14.374,7.849-28.247,15.644-40.58
	c-18.413,4.043-35.111,15.412-45.62,31.062c-10.51,15.65-14.715,35.409-11.489,53.982c-9.559-9.753-13.333-24.795-9.511-37.905
	c-7.771,2.315-13.064,9.878-14.977,17.758c-1.913,7.88-1.037,16.135-0.151,24.195c1.792,16.295,11.2,38.353,12.993,54.648
	c1.44-30.514,10.365-65.104,32.781-85.858s53.141-32.269,83.676-31.359c14.094,0.42,27.978,3.358,41.771,6.284
	c3.53,0.749,7.189,1.555,10.054,3.748c2.865,2.193,4.32-1.109,2.865,2.193c24.403,10.385,45.026,37.481,55.986,61.632
	c10.959,24.151-1.999,57.618-3.137,83.351C269.871,193.144,286.083,160.38,291.085,131.774z"/>
<g>
</g>
<g>
</g>
<g>
</g>
<g>
</g>
<g>
</g>
<g>
</g>
</svg>
