<?xml version="1.0" encoding="utf-8"?>
<!-- Generator: Adobe Illustrator 27.9.0, SVG Export Plug-In . SVG Version: 6.00 Build 0)  -->
<svg version="1.1" xmlns="http://www.w3.org/2000/svg" xmlns:xlink="http://www.w3.org/1999/xlink" x="0px" y="0px"
	 viewBox="0 0 300 300" style="enable-background:new 0 0 300 300;" xml:space="preserve">
<style type="text/css">
	.st0{fill:#009640;}
	.st1{fill:none;stroke:#FFFFFF;stroke-width:6;stroke-miterlimit:10;}
	.st2{fill:#FFFFFF;}
</style>
<g id="Layer_1">
</g>
<g id="Layer_2">
	<g>
		<circle class="st0" cx="150" cy="150" r="145"/>
		<circle class="st1" cx="150" cy="150" r="127.68"/>
		<g>
			<path class="st2" d="M99.44,62.32c0,6.33,2.76,13.28,7.49,20.59c-1.69,1.69-3.65,3.3-6.06,4.99c0.45,11.5,1.07,25.67,1.07,37.17
				c0,6.06,0,13.55-4.37,26.21c-2.76,4.46-6.24,7.49-10.16,9.98c-5.71,3.74-12.75,5.62-18.63,5.62c-7.76,0-14.17-2.67-18.54-7.67
				c-4.1-4.72-6.33-11.5-6.33-20.15c0-7.49,2.41-14.98,5.97-22.46l3.21,1.25c-2.23,5.08-3.74,10.34-3.74,15.51
				c0,5.26,1.43,9.81,4.55,13.82c3.66,4.81,9.09,7.22,15.42,7.22c5.97,0,11.05-1.69,15.42-4.28c4.46-2.32,7.93-5.08,9.72-8.38
				c0.18-1.87,0.27-3.74,0.27-5.53c0-13.46-0.89-29.95-2.32-49.83c-0.27-3.65-0.8-7.76-0.8-11.68c0-2.58,0.27-4.99,1.87-7.04
				c1.25-1.87,3.12-3.74,5.35-5.62L99.44,62.32z"/>
			<path class="st2" d="M173.52,61.87c0.54,17.38,0.89,34.85,0.89,52.24c0,7.84,0.18,14.71,2.32,19.88c1.78,4.28,5.97,8.2,10.79,8.2
				h0.71v11.41h-1.69c-8.29,0-18.45-7.49-18.45-24.6l-0.62-0.09c-3.48,12.84-11.14,19.17-19.43,23c-6.42,2.5-11.05,3.57-18.19,3.57
				l-9.72-0.89l-0.36-0.62c14.44-5.44,25.41-11.05,33.96-16.67c-1.51-8.83-10.07-22.91-25.67-43.59c-4.55-6.15-9.27-11.5-9.27-14.62
				c0-2.23,1.43-5.79,2.41-8.2h0.45c4.64,4.72,10.88,8.83,16.85,12.66l-3.03,5.26c4.72,6.51,9.45,13.37,14.26,21.57
				c3.65,6.33,7.04,13.37,7.04,19.08c0,1.96-0.18,3.65-0.36,5.62l0.27,0.09c2.67-2.59,4.72-5.08,6.42-7.67
				c3.57-5.71,3.57-11.94,3.57-27.28c0-10.25-0.71-20.59-1.16-31.02c2.41-2.94,4.46-5.35,7.31-7.58L173.52,61.87z"/>
			<path class="st2" d="M193.67,142.19c14.44,0,29.24-5.08,47.6-16.13l0.09-0.36c-10.34-3.83-19.79-6.24-27.99-6.24
				c-5.08,0-8.83,1.6-11.32,4.46l1.07,4.46l-2.67,8.02h-0.89l-4.37-11.77c0.71-9.89,8.65-16.05,19.34-16.05
				c5.97,0,15.33,2.14,29.24,7.76c4.28,1.69,9.63,2.76,15.24,2.85l7.22-0.09l0.27,0.18l-4.72,9.36c-7.49-0.18-12.48,1.43-15.42,3.3
				l-14.89,9.72c-11.94,7.76-24.69,11.94-38.6,11.94h-4.64c-4.9,0-6.24-3.57-6.24-5.97c0-2.14,1.43-5.44,6.24-5.44H193.67z"/>
		</g>
		<g>
			<path class="st2" d="M98.46,198.17c-3.81,0.31-4.18,0.52-4.18,4.33v17.87c0,3.81,0.4,4.05,4.18,4.36v1.29H85.72v-1.29
				c3.96-0.31,4.33-0.55,4.33-4.36v-8.78H74.3v8.78c0,3.78,0.37,4.05,4.17,4.36v1.29h-12.5v-1.29c3.68-0.31,4.02-0.55,4.02-4.36
				V202.5c0-3.81-0.34-4.02-4.14-4.33v-1.35h12.37v1.35c-3.56,0.31-3.93,0.52-3.93,4.33v7.06h15.75v-7.06
				c0-3.78-0.37-4.02-4.02-4.33v-1.35h12.43V198.17z"/>
			<path class="st2" d="M125.8,226.01v-1.29c2.85-0.4,3.25-0.8,2.64-2.61c-0.64-1.78-1.47-4.02-2.46-6.6h-9.85
				c-0.77,2.06-1.38,3.81-1.96,5.59c-0.98,2.73-0.61,3.25,2.85,3.62v1.29h-10.13v-1.29c2.98-0.46,3.62-0.77,5.25-4.76l9.64-23.42
				l1.6-0.4c2.95,7.95,5.89,15.93,8.93,23.82c1.47,3.96,2.12,4.45,5.1,4.76v1.29H125.8z M121.28,202.31h-0.09
				c-1.47,3.71-2.92,7.55-4.3,11.18h8.41L121.28,202.31z"/>
			<path class="st2" d="M168.51,218.77c-0.31,1.54-1.26,5.86-1.72,7.25h-21.18v-1.29c3.93-0.28,4.33-0.58,4.33-4.51v-17.62
				c0-3.9-0.31-4.17-4.11-4.42v-1.35h12.43v1.35c-3.62,0.25-4.05,0.49-4.05,4.42v17.47c0,2.46,0.21,3.32,1.07,3.78
				c0.89,0.49,2.46,0.58,4.27,0.58c2.42,0,4.05-0.28,5.1-1.44c0.86-0.86,1.72-2.33,2.49-4.48L168.51,218.77z"/>
			<path class="st2" d="M194.65,226.01v-1.29c2.86-0.4,3.25-0.8,2.64-2.61c-0.64-1.78-1.47-4.02-2.46-6.6h-9.86
				c-0.77,2.06-1.38,3.81-1.96,5.59c-0.98,2.73-0.61,3.25,2.86,3.62v1.29h-10.13v-1.29c2.98-0.46,3.62-0.77,5.25-4.76l9.64-23.42
				l1.6-0.4c2.95,7.95,5.89,15.93,8.93,23.82c1.47,3.96,2.12,4.45,5.1,4.76v1.29H194.65z M190.14,202.31h-0.09
				c-1.47,3.71-2.92,7.55-4.3,11.18h8.41L190.14,202.31z"/>
			<path class="st2" d="M237.37,218.77c-0.31,1.54-1.26,5.86-1.72,7.25h-21.18v-1.29c3.93-0.28,4.33-0.58,4.33-4.51v-17.62
				c0-3.9-0.31-4.17-4.11-4.42v-1.35h12.43v1.35c-3.62,0.25-4.05,0.49-4.05,4.42v17.47c0,2.46,0.21,3.32,1.07,3.78
				c0.89,0.49,2.46,0.58,4.27,0.58c2.42,0,4.05-0.28,5.1-1.44c0.86-0.86,1.72-2.33,2.49-4.48L237.37,218.77z"/>
		</g>
	</g>
</g>
</svg>
