<?xml version="1.0" encoding="utf-8"?>
<!-- Generator: Adobe Illustrator 27.9.0, SVG Export Plug-In . SVG Version: 6.00 Build 0)  -->
<svg version="1.1" id="Layer_1" xmlns="http://www.w3.org/2000/svg" xmlns:xlink="http://www.w3.org/1999/xlink" x="0px" y="0px"
	 viewBox="0 0 300 300" enable-background="new 0 0 300 300" xml:space="preserve">
<g>
	<path fill="#231F20" d="M150.079,55.931c-22.25,38.539-44.501,77.077-66.751,115.616c-3.199,5.541-6.398,11.082-9.597,16.622
		c-1.42,2.46,0.384,5.643,3.238,5.643c44.501,0,89.001,0,133.502,0c6.398,0,12.796,0,19.194,0c2.854,0,4.658-3.182,3.238-5.643
		c-22.25-38.539-44.501-77.077-66.751-115.616c-3.199-5.541-6.398-11.082-9.597-16.622c-2.413-4.179-8.896-0.406-6.476,3.785
		c22.25,38.539,44.501,77.077,66.751,115.616c3.199,5.541,6.398,11.082,9.597,16.622c1.079-1.881,2.159-3.762,3.238-5.643
		c-44.501,0-89.001,0-133.502,0c-6.398,0-12.796,0-19.194,0c1.079,1.881,2.159,3.762,3.238,5.643
		c22.25-38.539,44.501-77.077,66.751-115.616c3.199-5.541,6.398-11.082,9.597-16.622C158.973,55.529,152.494,51.748,150.079,55.931z
		"/>
</g>
<g>
	<path fill="#231F20" d="M156.555,236.034c22.25-38.539,44.501-77.077,66.751-115.616c3.199-5.541,6.398-11.082,9.597-16.622
		c1.42-2.46-0.384-5.643-3.238-5.643c-44.501,0-89.001,0-133.502,0c-6.398,0-12.796,0-19.194,0c-2.854,0-4.658,3.183-3.238,5.643
		c22.25,38.539,44.501,77.077,66.751,115.616c3.199,5.541,6.398,11.082,9.597,16.622c2.413,4.179,8.896,0.406,6.476-3.785
		c-22.25-38.539-44.501-77.077-66.751-115.616c-3.199-5.541-6.398-11.082-9.597-16.622c-1.079,1.881-2.159,3.762-3.238,5.643
		c44.501,0,89.001,0,133.502,0c6.398,0,12.796,0,19.194,0c-1.079-1.881-2.159-3.762-3.238-5.643
		c-22.25,38.539-44.501,77.077-66.751,115.616c-3.199,5.541-6.398,11.082-9.597,16.622
		C147.661,236.436,154.14,240.217,156.555,236.034z"/>
</g>
<g>
	<path fill="#231F20" d="M260.62,60.475c0.385,0.483-0.686-0.938-0.054-0.067c0.491,0.677,0.992,1.347,1.474,2.031
		c1.616,2.293,3.134,4.656,4.586,7.056c4.947,8.18,9.113,16.844,12.384,25.827c10.172,27.935,11.415,58.293,1.961,86.624
		c-7.635,22.88-21.59,42.962-38.109,60.325c-3.327,3.496,1.968,8.809,5.303,5.303c27.73-29.146,47.304-65.991,46.859-106.982
		c-0.273-25.199-7.725-50.205-20.232-72.012c-2.66-4.639-5.531-9.22-8.869-13.409C262.916,51.398,257.64,56.736,260.62,60.475
		L260.62,60.475z"/>
</g>
<g>
	<path fill="#231F20" d="M34.077,55.172c-9.133,11.46-15.74,25.329-20.638,39.042c-10.469,29.315-11.37,61.548-1.182,91.083
		c8.136,23.584,22.476,44.304,39.578,62.279c3.334,3.504,8.631-1.805,5.303-5.303c-26.688-28.05-45.436-63.412-44.644-102.876
		C12.971,115.701,20.149,92.274,32,71.819c1.712-2.956,3.523-5.858,5.466-8.669c0.569-0.823,1.153-1.633,1.743-2.44
		c0.774-1.057,0.039-0.069,0.171-0.235C42.359,56.738,37.086,51.397,34.077,55.172L34.077,55.172z"/>
</g>
<g>
	<g>
		<path fill="#231F20" stroke="#231F20" stroke-width="2" stroke-miterlimit="10" d="M37.011,31.768
			c2.367-1.057,3.556-1.571,5.941-2.571c3.031,7.227,4.546,10.84,7.577,18.067c0.076-0.032,0.114-0.048,0.189-0.079
			c0.531-1.921,1.131-3.732,1.731-5.403c3.03-7.796,4.716-11.686,8.432-19.407c2.957-1.012,4.44-1.498,7.417-2.427
			c-4.705,8.693-6.828,13.09-10.617,21.919c8.239,4.954,16.361,10.55,23.916,16.497c-2.46,0.754-3.687,1.148-6.131,1.968
			c-7.808-5.799-11.911-8.555-20.485-13.721c-0.954,2.304-1.415,3.457-2.307,5.766c2.397,5.715,3.595,8.572,5.992,14.287
			c-2.045,0.858-3.064,1.299-5.095,2.205C48.052,56.503,42.532,44.136,37.011,31.768z"/>
		<path fill="#231F20" stroke="#231F20" stroke-width="2" stroke-miterlimit="10" d="M116.675,29.789
			c1.492,11.053-4.999,21.789-16.143,24.271c-10.978,2.445-21.033-4.673-24.233-15.066c-3.694-11.998,4.116-23.436,16.01-26.085
			C104.099,10.281,115.064,17.852,116.675,29.789z M82.279,37.064c2.473,8.886,9.198,14.606,17.635,12.748
			c8.745-1.925,12.104-10.234,10.675-18.98c-1.341-8.21-7.446-15.925-17.787-13.651C83.021,19.332,79.823,28.236,82.279,37.064z"/>
		<path fill="#231F20" stroke="#231F20" stroke-width="2" stroke-miterlimit="10" d="M124.978,42.835
			c2.624,1.158,6.297,1.999,10.054,1.722c5.572-0.411,8.727-3.325,8.571-7.421c-0.144-3.795-2.616-6.039-8.813-7.611
			c-7.279-1.847-12.408-4.717-13.059-10.347c-0.72-6.228,4.987-11.709,14.433-12.276c4.904-0.295,8.623,0.569,10.795,1.486
			c-0.65,1.727-0.971,2.591-1.6,4.322c-1.574-0.679-4.818-1.786-9.152-1.522c-6.534,0.397-8.704,3.995-8.447,6.756
			c0.352,3.781,3.384,5.306,9.766,7.116c7.839,2.223,11.715,5.534,11.808,11.501c0.098,6.268-4.571,11.677-14.349,12.413
			c-4.059,0.306-8.535-0.43-10.937-1.6C124.411,45.557,124.596,44.65,124.978,42.835z"/>
		<path fill="#231F20" stroke="#231F20" stroke-width="2" stroke-miterlimit="10" d="M163.719,7.18
			c-0.249,6.819-0.373,10.229-0.622,17.049c8.83,0.322,13.243,0.665,22.03,1.713c0.809-6.776,1.214-10.164,2.023-16.94
			c2.494,0.298,3.74,0.46,6.228,0.813c-1.901,13.409-3.803,26.819-5.704,40.228c-2.134-0.303-3.203-0.442-5.342-0.697
			c0.903-7.566,1.355-11.349,2.259-18.915c-8.638-1.031-12.978-1.368-21.659-1.685c-0.278,7.615-0.417,11.422-0.694,19.037
			c-2.174-0.079-3.261-0.107-5.436-0.138c0.193-13.542,0.386-27.084,0.579-40.627C159.916,7.056,161.184,7.088,163.719,7.18z"/>
		<path fill="#231F20" stroke="#231F20" stroke-width="2" stroke-miterlimit="10" d="M223.107,37.97
			c-6.764-1.856-10.171-2.669-17.017-4.067c-1.177,5.765-1.766,8.647-2.943,14.412c7.232,1.477,10.83,2.35,17.963,4.368
			c-0.473,1.671-0.709,2.506-1.181,4.177c-9.121-2.58-13.734-3.645-23.012-5.325c2.413-13.327,4.826-26.654,7.239-39.981
			c10.391,1.881,15.559,3.064,25.783,5.914c-0.466,1.672-0.699,2.509-1.165,4.181c-7.641-2.13-11.493-3.058-19.233-4.638
			c-1.032,5.056-1.549,7.584-2.581,12.64c6.959,1.421,10.422,2.248,17.297,4.134C223.796,35.459,223.567,36.296,223.107,37.97z"/>
		<path fill="#231F20" stroke="#231F20" stroke-width="2" stroke-miterlimit="10" d="M238.571,20.591
			c3.286,0.462,7.752,1.627,11.882,3.12c6.402,2.315,10.121,4.966,12.045,8.258c1.514,2.591,1.716,5.716,0.465,8.59
			c-2.142,4.919-7.1,6.622-12.115,6.187c-0.018,0.045-0.027,0.067-0.044,0.112c2.858,2.368,3.642,5.919,2.978,10.158
			c-0.914,5.837-1.543,9.775-1.369,11.566c-2.079-0.921-3.122-1.368-5.216-2.238c-0.2-1.323,0.242-4.942,0.997-10.077
			c0.825-5.612-0.615-8.592-5.546-10.57c-2.073-0.751-3.113-1.115-5.198-1.821c-2.258,6.669-3.387,10.004-5.645,16.673
			c-2.087-0.707-3.134-1.048-5.232-1.707C230.571,46.091,234.571,33.341,238.571,20.591z M238.725,40.106
			c2.297,0.778,3.442,1.18,5.726,2.012c5.964,2.172,10.858,0.901,12.615-3.395c2.008-4.91-1.377-8.781-7.579-11.066
			c-2.899-1.068-4.974-1.502-6.006-1.597C241.579,31.678,240.628,34.488,238.725,40.106z"/>
	</g>
</g>
<g>
	<g>
		<path fill="#231F20" stroke="#231F20" stroke-width="2" stroke-miterlimit="10" d="M72.181,228.98
			c8.969,3.661,13.542,5.217,22.786,7.779c-0.493,1.78-0.74,2.671-1.234,4.451c-7.16-1.985-10.711-3.138-17.717-5.768
			c-2.029,5.405-3.043,8.108-5.072,13.513c6.943,2.606,10.458,3.761,17.544,5.774c-0.505,1.777-0.757,2.666-1.262,4.443
			c-7.232-2.055-10.819-3.233-17.905-5.893c-2.75,7.327-4.125,10.991-6.875,18.318c-2.654-0.996-3.976-1.514-6.607-2.588
			C61.287,255.667,66.734,242.324,72.181,228.98z"/>
		<path fill="#231F20" stroke="#231F20" stroke-width="2" stroke-miterlimit="10" d="M139.291,265.532
			c-0.195,13.477-13.672,21.217-25.823,19.967c-12.998-1.337-21.291-13.835-18.411-26.101c2.731-11.633,13.672-19.634,25.7-17.957
			C132.654,243.099,139.453,254.372,139.291,265.532z M101.702,260.746c-2.08,9.592,2.212,18.758,12.817,20.304
			c10.992,1.602,17.402-6.394,18.116-15.797c0.671-8.827-3.127-17.936-12.921-19.361
			C110.448,244.545,103.769,251.217,101.702,260.746z"/>
		<path fill="#231F20" stroke="#231F20" stroke-width="2" stroke-miterlimit="10" d="M188.987,262.38
			c2.749,13.197-8.747,23.686-20.868,25.116c-12.972,1.531-23.688-8.893-23.558-21.46c0.123-11.923,8.97-22.149,21.069-23.128
			C177.6,241.94,186.71,251.448,188.987,262.38z M151.298,265.901c0.063,9.815,6.209,17.824,16.877,17.024
			c11.057-0.829,15.59-10.032,14.238-19.364c-1.269-8.761-6.979-16.823-16.831-16.08
			C156.263,248.183,151.236,256.151,151.298,265.901z"/>
		<path fill="#231F20" stroke="#231F20" stroke-width="2" stroke-miterlimit="10" d="M192.621,240.314
			c3.38-1.242,7.322-2.567,11.709-3.776c7.948-2.189,14.078-2.381,19.065-0.508c5.035,1.891,9.289,5.6,11.908,12.015
			c2.667,6.533,2.479,12.855-0.763,18.336c-3.273,5.534-10.497,10.392-20.629,13.088c-4.795,1.276-8.891,2.021-12.463,2.451
			C198.506,268.051,195.564,254.183,192.621,240.314z M207.277,276.19c1.736-0.156,4.238-0.786,6.77-1.408
			c10.864-2.67,19.426-12.725,15.112-24.127c-3.618-9.561-14.128-12.755-23.394-9.921c-2.822,0.863-5.063,1.67-6.51,2.284
			C201.929,254.075,204.603,265.133,207.277,276.19z"/>
	</g>
</g>
</svg>
