<?xml version="1.0" encoding="utf-8"?>
<!-- Generator: Adobe Illustrator 27.9.0, SVG Export Plug-In . SVG Version: 6.00 Build 0)  -->
<svg version="1.1" id="Layer_1" xmlns="http://www.w3.org/2000/svg" xmlns:xlink="http://www.w3.org/1999/xlink" x="0px" y="0px"
	 viewBox="0 0 300 300" enable-background="new 0 0 300 300" xml:space="preserve">
<g>
	<path fill="#7AC943" d="M153.177,265.242c0,0,2.353-115.293,98.823-136.469C251.999,128.773,252,271,161,274
		c0,0,19.235-42.876,54.529-82.875c0,0-16.47-11.765-58.823,75.293C156.706,266.418,152,268.771,153.177,265.242z"/>
	<path fill="none" stroke="#7AC943" stroke-miterlimit="10" d="M153.177,265.242c0,0,2.353-115.293,98.823-136.469
		C251.999,128.773,252,271,161,274c0,0,19.235-42.876,54.529-82.875c0,0-16.47-11.765-58.823,75.293
		C156.706,266.418,152,268.771,153.177,265.242z"/>
</g>
<g>
	<path fill="#7AC943" d="M145.574,257.338c0,0,26.256-121.338-106.442-177.432C39.131,79.907,5,223,129,263
		c0,0-13.406-50.848-53.667-105.081c0,0,26.608-6.499,64.884,99.407C140.217,257.326,146.351,261.442,145.574,257.338z"/>
	<path fill="none" stroke="#7AC943" stroke-miterlimit="10" d="M145.574,257.338c0,0,26.256-121.338-106.442-177.432
		C39.131,79.907,5,223,129,263c0,0-13.406-50.848-53.667-105.081c0,0,26.608-6.499,64.884,99.407
		C140.217,257.326,146.351,261.442,145.574,257.338z"/>
</g>
<circle fill="none" stroke="#7AC943" stroke-width="14" stroke-miterlimit="10" cx="150" cy="150" r="140"/>
</svg>
